<svg width="179" height="179" viewBox="0 0 179 179" fill="none" xmlns="http://www.w3.org/2000/svg">
<rect x="40.5" y="40.5" width="98" height="98" fill="#D9D9D9" stroke="#A7A7A7"/>
<line x1="41.6464" y1="137.646" x2="137.646" y2="41.6464" stroke="#D1D1D1"/>
<line x1="137.646" y1="138.354" x2="41.6465" y2="42.3536" stroke="#D1D1D1"/>
<path d="M97.321 129.03L95.301 136H94.281L92.661 130.39L90.981 136L89.971 136.01L88.021 129.03H88.991L90.511 134.94L92.191 129.03H93.211L94.811 134.92L96.341 129.03H97.321ZM100.707 136.09C100.194 136.09 99.7269 135.973 99.3069 135.74C98.8935 135.507 98.5669 135.177 98.3269 134.75C98.0935 134.317 97.9769 133.817 97.9769 133.25C97.9769 132.69 98.0969 132.197 98.3369 131.77C98.5835 131.337 98.9169 131.007 99.3369 130.78C99.7569 130.547 100.227 130.43 100.747 130.43C101.267 130.43 101.737 130.547 102.157 130.78C102.577 131.007 102.907 131.333 103.147 131.76C103.394 132.187 103.517 132.683 103.517 133.25C103.517 133.817 103.39 134.317 103.137 134.75C102.89 135.177 102.554 135.507 102.127 135.74C101.7 135.973 101.227 136.09 100.707 136.09ZM100.707 135.29C101.034 135.29 101.34 135.213 101.627 135.06C101.914 134.907 102.144 134.677 102.317 134.37C102.497 134.063 102.587 133.69 102.587 133.25C102.587 132.81 102.5 132.437 102.327 132.13C102.154 131.823 101.927 131.597 101.647 131.45C101.367 131.297 101.064 131.22 100.737 131.22C100.404 131.22 100.097 131.297 99.8169 131.45C99.5435 131.597 99.3235 131.823 99.1569 132.13C98.9902 132.437 98.9069 132.81 98.9069 133.25C98.9069 133.697 98.9869 134.073 99.1469 134.38C99.3135 134.687 99.5335 134.917 99.8069 135.07C100.08 135.217 100.38 135.29 100.707 135.29ZM107.103 136.09C106.59 136.09 106.123 135.973 105.703 135.74C105.29 135.507 104.963 135.177 104.723 134.75C104.49 134.317 104.373 133.817 104.373 133.25C104.373 132.69 104.493 132.197 104.733 131.77C104.98 131.337 105.313 131.007 105.733 130.78C106.153 130.547 106.623 130.43 107.143 130.43C107.663 130.43 108.133 130.547 108.553 130.78C108.973 131.007 109.303 131.333 109.543 131.76C109.79 132.187 109.913 132.683 109.913 133.25C109.913 133.817 109.787 134.317 109.533 134.75C109.287 135.177 108.95 135.507 108.523 135.74C108.097 135.973 107.623 136.09 107.103 136.09ZM107.103 135.29C107.43 135.29 107.737 135.213 108.023 135.06C108.31 134.907 108.54 134.677 108.713 134.37C108.893 134.063 108.983 133.69 108.983 133.25C108.983 132.81 108.897 132.437 108.723 132.13C108.55 131.823 108.323 131.597 108.043 131.45C107.763 131.297 107.46 131.22 107.133 131.22C106.8 131.22 106.493 131.297 106.213 131.45C105.94 131.597 105.72 131.823 105.553 132.13C105.387 132.437 105.303 132.81 105.303 133.25C105.303 133.697 105.383 134.073 105.543 134.38C105.71 134.687 105.93 134.917 106.203 135.07C106.477 135.217 106.777 135.29 107.103 135.29ZM110.77 133.24C110.77 132.68 110.883 132.19 111.11 131.77C111.337 131.343 111.647 131.013 112.04 130.78C112.44 130.547 112.887 130.43 113.38 130.43C113.807 130.43 114.203 130.53 114.57 130.73C114.937 130.923 115.217 131.18 115.41 131.5V128.6H116.33V136H115.41V134.97C115.23 135.297 114.963 135.567 114.61 135.78C114.257 135.987 113.843 136.09 113.37 136.09C112.883 136.09 112.44 135.97 112.04 135.73C111.647 135.49 111.337 135.153 111.11 134.72C110.883 134.287 110.77 133.793 110.77 133.24ZM115.41 133.25C115.41 132.837 115.327 132.477 115.16 132.17C114.993 131.863 114.767 131.63 114.48 131.47C114.2 131.303 113.89 131.22 113.55 131.22C113.21 131.22 112.9 131.3 112.62 131.46C112.34 131.62 112.117 131.853 111.95 132.16C111.783 132.467 111.7 132.827 111.7 133.24C111.7 133.66 111.783 134.027 111.95 134.34C112.117 134.647 112.34 134.883 112.62 135.05C112.9 135.21 113.21 135.29 113.55 135.29C113.89 135.29 114.2 135.21 114.48 135.05C114.767 134.883 114.993 134.647 115.16 134.34C115.327 134.027 115.41 133.663 115.41 133.25ZM118.778 128.6V136H117.868V128.6H118.778ZM125.329 133.05C125.329 133.223 125.319 133.407 125.299 133.6H120.919C120.952 134.14 121.135 134.563 121.469 134.87C121.809 135.17 122.219 135.32 122.699 135.32C123.092 135.32 123.419 135.23 123.679 135.05C123.945 134.863 124.132 134.617 124.239 134.31H125.219C125.072 134.837 124.779 135.267 124.339 135.6C123.899 135.927 123.352 136.09 122.699 136.09C122.179 136.09 121.712 135.973 121.299 135.74C120.892 135.507 120.572 135.177 120.339 134.75C120.105 134.317 119.989 133.817 119.989 133.25C119.989 132.683 120.102 132.187 120.329 131.76C120.555 131.333 120.872 131.007 121.279 130.78C121.692 130.547 122.165 130.43 122.699 130.43C123.219 130.43 123.679 130.543 124.079 130.77C124.479 130.997 124.785 131.31 124.999 131.71C125.219 132.103 125.329 132.55 125.329 133.05ZM124.389 132.86C124.389 132.513 124.312 132.217 124.159 131.97C124.005 131.717 123.795 131.527 123.529 131.4C123.269 131.267 122.979 131.2 122.659 131.2C122.199 131.2 121.805 131.347 121.479 131.64C121.159 131.933 120.975 132.34 120.929 132.86H124.389ZM128.47 136.09C128.05 136.09 127.673 136.02 127.34 135.88C127.006 135.733 126.743 135.533 126.55 135.28C126.356 135.02 126.25 134.723 126.23 134.39H127.17C127.196 134.663 127.323 134.887 127.55 135.06C127.783 135.233 128.086 135.32 128.46 135.32C128.806 135.32 129.08 135.243 129.28 135.09C129.48 134.937 129.58 134.743 129.58 134.51C129.58 134.27 129.473 134.093 129.26 133.98C129.046 133.86 128.716 133.743 128.27 133.63C127.863 133.523 127.53 133.417 127.27 133.31C127.016 133.197 126.796 133.033 126.61 132.82C126.43 132.6 126.34 132.313 126.34 131.96C126.34 131.68 126.423 131.423 126.59 131.19C126.756 130.957 126.993 130.773 127.3 130.64C127.606 130.5 127.956 130.43 128.35 130.43C128.956 130.43 129.446 130.583 129.82 130.89C130.193 131.197 130.393 131.617 130.42 132.15H129.51C129.49 131.863 129.373 131.633 129.16 131.46C128.953 131.287 128.673 131.2 128.32 131.2C127.993 131.2 127.733 131.27 127.54 131.41C127.346 131.55 127.25 131.733 127.25 131.96C127.25 132.14 127.306 132.29 127.42 132.41C127.54 132.523 127.686 132.617 127.86 132.69C128.04 132.757 128.286 132.833 128.6 132.92C128.993 133.027 129.313 133.133 129.56 133.24C129.806 133.34 130.016 133.493 130.19 133.7C130.37 133.907 130.463 134.177 130.47 134.51C130.47 134.81 130.386 135.08 130.22 135.32C130.053 135.56 129.816 135.75 129.51 135.89C129.21 136.023 128.863 136.09 128.47 136.09ZM133.694 136.09C133.274 136.09 132.898 136.02 132.564 135.88C132.231 135.733 131.968 135.533 131.774 135.28C131.581 135.02 131.474 134.723 131.454 134.39H132.394C132.421 134.663 132.548 134.887 132.774 135.06C133.008 135.233 133.311 135.32 133.684 135.32C134.031 135.32 134.304 135.243 134.504 135.09C134.704 134.937 134.804 134.743 134.804 134.51C134.804 134.27 134.698 134.093 134.484 133.98C134.271 133.86 133.941 133.743 133.494 133.63C133.088 133.523 132.754 133.417 132.494 133.31C132.241 133.197 132.021 133.033 131.834 132.82C131.654 132.6 131.564 132.313 131.564 131.96C131.564 131.68 131.648 131.423 131.814 131.19C131.981 130.957 132.218 130.773 132.524 130.64C132.831 130.5 133.181 130.43 133.574 130.43C134.181 130.43 134.671 130.583 135.044 130.89C135.418 131.197 135.618 131.617 135.644 132.15H134.734C134.714 131.863 134.598 131.633 134.384 131.46C134.178 131.287 133.898 131.2 133.544 131.2C133.218 131.2 132.958 131.27 132.764 131.41C132.571 131.55 132.474 131.733 132.474 131.96C132.474 132.14 132.531 132.29 132.644 132.41C132.764 132.523 132.911 132.617 133.084 132.69C133.264 132.757 133.511 132.833 133.824 132.92C134.218 133.027 134.538 133.133 134.784 133.24C135.031 133.34 135.241 133.493 135.414 133.7C135.594 133.907 135.688 134.177 135.694 134.51C135.694 134.81 135.611 135.08 135.444 135.32C135.278 135.56 135.041 135.75 134.734 135.89C134.434 136.023 134.088 136.09 133.694 136.09Z" fill="#B1B1B1"/>
<rect x="40" y="4" width="108.219" height="30" rx="3" fill="white"/>
<rect x="40.5" y="4.5" width="107.219" height="29" rx="2.5" stroke="black" stroke-opacity="0.14902"/>
<path d="M47.9375 14V22H46.9688V14H47.9375ZM49.7549 22V16H50.6455V16.9375H50.7236C50.8486 16.6172 51.0505 16.3685 51.3291 16.1914C51.6077 16.0117 51.9424 15.9219 52.333 15.9219C52.7288 15.9219 53.0583 16.0117 53.3213 16.1914C53.5869 16.3685 53.7939 16.6172 53.9424 16.9375H54.0049C54.1585 16.6276 54.389 16.3815 54.6963 16.1992C55.0036 16.0143 55.3721 15.9219 55.8018 15.9219C56.3382 15.9219 56.777 16.0898 57.1182 16.4258C57.4593 16.7591 57.6299 17.2786 57.6299 17.9844V22H56.708V17.9844C56.708 17.5417 56.5869 17.2253 56.3447 17.0352C56.1025 16.8451 55.8174 16.75 55.4893 16.75C55.0674 16.75 54.7406 16.8776 54.5088 17.1328C54.277 17.3854 54.1611 17.7057 54.1611 18.0937V22H53.2236V17.8906C53.2236 17.5495 53.113 17.2747 52.8916 17.0664C52.6702 16.8555 52.3851 16.75 52.0361 16.75C51.7965 16.75 51.5726 16.8138 51.3643 16.9414C51.1585 17.069 50.9919 17.2461 50.8643 17.4727C50.7393 17.6966 50.6768 17.9557 50.6768 18.25V22H49.7549ZM61.0811 22.1406C60.7008 22.1406 60.3558 22.069 60.0459 21.9258C59.736 21.7799 59.4899 21.5703 59.3076 21.2969C59.1253 21.0208 59.0342 20.6875 59.0342 20.2969C59.0342 19.9531 59.1019 19.6745 59.2373 19.4609C59.3727 19.2448 59.5537 19.0755 59.7803 18.9531C60.0068 18.8307 60.2568 18.7396 60.5303 18.6797C60.8063 18.6172 61.0837 18.5677 61.3623 18.5313C61.7269 18.4844 62.0225 18.4492 62.249 18.4258C62.4782 18.3997 62.6449 18.3568 62.749 18.2969C62.8558 18.237 62.9092 18.1328 62.9092 17.9844V17.9531C62.9092 17.5677 62.8037 17.2682 62.5928 17.0547C62.3844 16.8411 62.068 16.7344 61.6436 16.7344C61.2035 16.7344 60.8584 16.8307 60.6084 17.0234C60.3584 17.2161 60.1826 17.4219 60.0811 17.6406L59.2061 17.3281C59.3623 16.9635 59.5706 16.6797 59.8311 16.4766C60.0941 16.2708 60.3805 16.1276 60.6904 16.0469C61.0029 15.9635 61.3102 15.9219 61.6123 15.9219C61.805 15.9219 62.0264 15.9453 62.2764 15.9922C62.529 16.0365 62.7725 16.1289 63.0068 16.2695C63.2438 16.4102 63.4404 16.6224 63.5967 16.9062C63.7529 17.1901 63.8311 17.5703 63.8311 18.0469V22H62.9092V21.1875H62.8623C62.7998 21.3177 62.6956 21.457 62.5498 21.6055C62.404 21.7539 62.21 21.8802 61.9678 21.9844C61.7256 22.0885 61.43 22.1406 61.0811 22.1406ZM61.2217 21.3125C61.5863 21.3125 61.8936 21.2409 62.1436 21.0977C62.3962 20.9544 62.5863 20.7695 62.7139 20.543C62.8441 20.3164 62.9092 20.0781 62.9092 19.8281V18.9844C62.8701 19.0312 62.7842 19.0742 62.6514 19.1133C62.5212 19.1497 62.3701 19.1823 62.1982 19.2109C62.029 19.237 61.8636 19.2604 61.7021 19.2812C61.5433 19.2995 61.4144 19.3151 61.3154 19.3281C61.0758 19.3594 60.8519 19.4102 60.6436 19.4805C60.4378 19.5482 60.2712 19.651 60.1436 19.7891C60.0186 19.9245 59.9561 20.1094 59.9561 20.3437C59.9561 20.6641 60.0745 20.9062 60.3115 21.0703C60.5511 21.2318 60.8545 21.3125 61.2217 21.3125ZM67.9355 24.375C67.4902 24.375 67.1074 24.3177 66.7871 24.2031C66.4668 24.0911 66.1999 23.9427 65.9863 23.7578C65.7754 23.5755 65.6074 23.3802 65.4824 23.1719L66.2168 22.6563C66.3001 22.7656 66.4056 22.8906 66.5332 23.0312C66.6608 23.1745 66.8353 23.2982 67.0566 23.4023C67.2806 23.5091 67.5736 23.5625 67.9355 23.5625C68.4199 23.5625 68.8197 23.4453 69.1348 23.2109C69.4499 22.9766 69.6074 22.6094 69.6074 22.1094V20.8906H69.5293C69.4616 21 69.3652 21.1354 69.2402 21.2969C69.1178 21.4557 68.9408 21.5977 68.709 21.7227C68.4798 21.8451 68.1699 21.9062 67.7793 21.9062C67.2949 21.9062 66.86 21.7917 66.4746 21.5625C66.0918 21.3333 65.7884 21 65.5645 20.5625C65.3431 20.125 65.2324 19.5937 65.2324 18.9687C65.2324 18.3542 65.3405 17.819 65.5566 17.3633C65.7728 16.9049 66.0736 16.5508 66.459 16.3008C66.8444 16.0482 67.2897 15.9219 67.7949 15.9219C68.1855 15.9219 68.4954 15.987 68.7246 16.1172C68.9564 16.2448 69.1335 16.3906 69.2559 16.5547C69.3809 16.7161 69.4772 16.849 69.5449 16.9531H69.6387V16H70.5293V22.1719C70.5293 22.6875 70.4121 23.1068 70.1777 23.4297C69.946 23.7552 69.6335 23.9935 69.2402 24.1445C68.8496 24.2982 68.4147 24.375 67.9355 24.375ZM67.9043 21.0781C68.2741 21.0781 68.5866 20.9935 68.8418 20.8242C69.097 20.6549 69.291 20.4115 69.4238 20.0938C69.5566 19.776 69.623 19.3958 69.623 18.9531C69.623 18.5208 69.5579 18.1393 69.4277 17.8086C69.2975 17.4779 69.1048 17.2187 68.8496 17.0312C68.5944 16.8437 68.2793 16.75 67.9043 16.75C67.5137 16.75 67.1882 16.849 66.9277 17.0469C66.6699 17.2448 66.4759 17.5104 66.3457 17.8438C66.2181 18.1771 66.1543 18.5469 66.1543 18.9531C66.1543 19.3698 66.2194 19.7383 66.3496 20.0586C66.4824 20.3763 66.6777 20.6263 66.9355 20.8086C67.196 20.9883 67.5189 21.0781 67.9043 21.0781ZM74.7324 22.125C74.1543 22.125 73.6556 21.9974 73.2363 21.7422C72.8197 21.4844 72.498 21.125 72.2715 20.6641C72.0475 20.2005 71.9355 19.6615 71.9355 19.0469C71.9355 18.4323 72.0475 17.8906 72.2715 17.4219C72.498 16.9505 72.8132 16.5833 73.2168 16.3203C73.623 16.0547 74.097 15.9219 74.6387 15.9219C74.9512 15.9219 75.2598 15.974 75.5645 16.0781C75.8691 16.1823 76.1465 16.3516 76.3965 16.5859C76.6465 16.8177 76.8457 17.125 76.9941 17.5078C77.1426 17.8906 77.2168 18.362 77.2168 18.9219V19.3125H72.5918V18.5156H76.2793C76.2793 18.1771 76.2116 17.875 76.0762 17.6094C75.9434 17.3437 75.7533 17.1341 75.5059 16.9805C75.2611 16.8268 74.972 16.75 74.6387 16.75C74.2715 16.75 73.9538 16.8411 73.6855 17.0234C73.4199 17.2031 73.2155 17.4375 73.0723 17.7266C72.929 18.0156 72.8574 18.3255 72.8574 18.6562V19.1875C72.8574 19.6406 72.9355 20.0247 73.0918 20.3398C73.2507 20.6523 73.4707 20.8906 73.752 21.0547C74.0332 21.2161 74.36 21.2969 74.7324 21.2969C74.9746 21.2969 75.1934 21.263 75.3887 21.1953C75.5866 21.125 75.7572 21.0208 75.9004 20.8828C76.0436 20.7422 76.1543 20.5677 76.2324 20.3594L77.123 20.6094C77.0293 20.9115 76.8717 21.1771 76.6504 21.4062C76.429 21.6328 76.1556 21.8099 75.8301 21.9375C75.5046 22.0625 75.1387 22.125 74.7324 22.125ZM81.8379 22V14H84.541C85.1686 14 85.6816 14.1133 86.0801 14.3398C86.4811 14.5638 86.778 14.8672 86.9707 15.25C87.1634 15.6328 87.2598 16.0599 87.2598 16.5312C87.2598 17.0026 87.1634 17.431 86.9707 17.8164C86.7806 18.2018 86.4863 18.5091 86.0879 18.7383C85.6895 18.9648 85.179 19.0781 84.5566 19.0781H82.6191V18.2188H84.5254C84.9551 18.2188 85.3001 18.1445 85.5605 17.9961C85.821 17.8477 86.0098 17.6471 86.127 17.3945C86.2467 17.1393 86.3066 16.8516 86.3066 16.5312C86.3066 16.2109 86.2467 15.9245 86.127 15.6719C86.0098 15.4193 85.8197 15.2214 85.5566 15.0781C85.2936 14.9323 84.9447 14.8594 84.5098 14.8594H82.8066V22H81.8379ZM89.6172 14V22H88.6953V14H89.6172ZM93.0713 22.1406C92.6911 22.1406 92.346 22.069 92.0361 21.9258C91.7262 21.7799 91.4801 21.5703 91.2979 21.2969C91.1156 21.0208 91.0244 20.6875 91.0244 20.2969C91.0244 19.9531 91.0921 19.6745 91.2275 19.4609C91.363 19.2448 91.5439 19.0755 91.7705 18.9531C91.9971 18.8307 92.2471 18.7396 92.5205 18.6797C92.7965 18.6172 93.0739 18.5677 93.3525 18.5313C93.7171 18.4844 94.0127 18.4492 94.2393 18.4258C94.4684 18.3997 94.6351 18.3568 94.7393 18.2969C94.846 18.237 94.8994 18.1328 94.8994 17.9844V17.9531C94.8994 17.5677 94.7939 17.2682 94.583 17.0547C94.3747 16.8411 94.0583 16.7344 93.6338 16.7344C93.1937 16.7344 92.8486 16.8307 92.5986 17.0234C92.3486 17.2161 92.1729 17.4219 92.0713 17.6406L91.1963 17.3281C91.3525 16.9635 91.5609 16.6797 91.8213 16.4766C92.0843 16.2708 92.3708 16.1276 92.6807 16.0469C92.9932 15.9635 93.3005 15.9219 93.6025 15.9219C93.7952 15.9219 94.0166 15.9453 94.2666 15.9922C94.5192 16.0365 94.7627 16.1289 94.9971 16.2695C95.234 16.4102 95.4307 16.6224 95.5869 16.9062C95.7432 17.1901 95.8213 17.5703 95.8213 18.0469V22H94.8994V21.1875H94.8525C94.79 21.3177 94.6859 21.457 94.54 21.6055C94.3942 21.7539 94.2002 21.8802 93.958 21.9844C93.7158 22.0885 93.4202 22.1406 93.0713 22.1406ZM93.2119 21.3125C93.5765 21.3125 93.8838 21.2409 94.1338 21.0977C94.3864 20.9544 94.5765 20.7695 94.7041 20.543C94.8343 20.3164 94.8994 20.0781 94.8994 19.8281V18.9844C94.8604 19.0312 94.7744 19.0742 94.6416 19.1133C94.5114 19.1497 94.3604 19.1823 94.1885 19.2109C94.0192 19.237 93.8538 19.2604 93.6924 19.2812C93.5335 19.2995 93.4046 19.3151 93.3057 19.3281C93.0661 19.3594 92.8421 19.4102 92.6338 19.4805C92.4281 19.5482 92.2614 19.651 92.1338 19.7891C92.0088 19.9245 91.9463 20.1094 91.9463 20.3437C91.9463 20.6641 92.0648 20.9062 92.3018 21.0703C92.5413 21.2318 92.8447 21.3125 93.2119 21.3125ZM99.9414 22.125C99.3789 22.125 98.8945 21.9922 98.4883 21.7266C98.082 21.4609 97.7695 21.0951 97.5508 20.6289C97.332 20.1628 97.2227 19.6302 97.2227 19.0312C97.2227 18.4219 97.3346 17.8841 97.5586 17.418C97.7852 16.9492 98.1003 16.5833 98.5039 16.3203C98.9102 16.0547 99.3841 15.9219 99.9258 15.9219C100.348 15.9219 100.728 16 101.066 16.1562C101.405 16.3125 101.682 16.5312 101.898 16.8125C102.115 17.0937 102.249 17.4219 102.301 17.7969H101.379C101.309 17.5234 101.152 17.2812 100.91 17.0703C100.671 16.8568 100.348 16.75 99.9414 16.75C99.582 16.75 99.2669 16.8437 98.9961 17.0312C98.7279 17.2161 98.5182 17.4779 98.3672 17.8164C98.2188 18.1523 98.1445 18.5469 98.1445 19C98.1445 19.4635 98.2174 19.8672 98.3633 20.2109C98.5117 20.5547 98.7201 20.8216 98.9883 21.0117C99.2591 21.2018 99.5768 21.2969 99.9414 21.2969C100.181 21.2969 100.398 21.2552 100.594 21.1719C100.789 21.0885 100.954 20.9688 101.09 20.8125C101.225 20.6562 101.322 20.4687 101.379 20.25H102.301C102.249 20.6042 102.12 20.9232 101.914 21.207C101.711 21.4883 101.441 21.7122 101.105 21.8789C100.772 22.043 100.384 22.125 99.9414 22.125ZM106.164 22.125C105.586 22.125 105.087 21.9974 104.668 21.7422C104.251 21.4844 103.93 21.125 103.703 20.6641C103.479 20.2005 103.367 19.6615 103.367 19.0469C103.367 18.4323 103.479 17.8906 103.703 17.4219C103.93 16.9505 104.245 16.5833 104.648 16.3203C105.055 16.0547 105.529 15.9219 106.07 15.9219C106.383 15.9219 106.691 15.974 106.996 16.0781C107.301 16.1823 107.578 16.3516 107.828 16.5859C108.078 16.8177 108.277 17.125 108.426 17.5078C108.574 17.8906 108.648 18.362 108.648 18.9219V19.3125H104.023V18.5156H107.711C107.711 18.1771 107.643 17.875 107.508 17.6094C107.375 17.3437 107.185 17.1341 106.938 16.9805C106.693 16.8268 106.404 16.75 106.07 16.75C105.703 16.75 105.385 16.8411 105.117 17.0234C104.852 17.2031 104.647 17.4375 104.504 17.7266C104.361 18.0156 104.289 18.3255 104.289 18.6562V19.1875C104.289 19.6406 104.367 20.0247 104.523 20.3398C104.682 20.6523 104.902 20.8906 105.184 21.0547C105.465 21.2161 105.792 21.2969 106.164 21.2969C106.406 21.2969 106.625 21.263 106.82 21.1953C107.018 21.125 107.189 21.0208 107.332 20.8828C107.475 20.7422 107.586 20.5677 107.664 20.3594L108.555 20.6094C108.461 20.9115 108.303 21.1771 108.082 21.4062C107.861 21.6328 107.587 21.8099 107.262 21.9375C106.936 22.0625 106.57 22.125 106.164 22.125ZM110.973 18.3906V22H110.051V14H110.973V16.9375H111.051C111.191 16.6276 111.402 16.3815 111.684 16.1992C111.967 16.0143 112.345 15.9219 112.816 15.9219C113.225 15.9219 113.583 16.0039 113.891 16.168C114.198 16.3294 114.436 16.5781 114.605 16.9141C114.777 17.2474 114.863 17.6719 114.863 18.1875V22H113.941V18.25C113.941 17.7734 113.818 17.4049 113.57 17.1445C113.326 16.8815 112.986 16.75 112.551 16.75C112.249 16.75 111.978 16.8138 111.738 16.9414C111.501 17.069 111.314 17.2552 111.176 17.5C111.04 17.7448 110.973 18.0417 110.973 18.3906ZM118.987 22.125C118.446 22.125 117.97 21.9961 117.562 21.7383C117.155 21.4805 116.838 21.1198 116.608 20.6562C116.382 20.1927 116.269 19.651 116.269 19.0312C116.269 18.4062 116.382 17.8607 116.608 17.3945C116.838 16.9284 117.155 16.5664 117.562 16.3086C117.97 16.0508 118.446 15.9219 118.987 15.9219C119.529 15.9219 120.003 16.0508 120.409 16.3086C120.818 16.5664 121.136 16.9284 121.362 17.3945C121.591 17.8607 121.706 18.4062 121.706 19.0312C121.706 19.651 121.591 20.1927 121.362 20.6562C121.136 21.1198 120.818 21.4805 120.409 21.7383C120.003 21.9961 119.529 22.125 118.987 22.125ZM118.987 21.2969C119.399 21.2969 119.737 21.1914 120.003 20.9805C120.269 20.7695 120.465 20.4922 120.593 20.1484C120.72 19.8047 120.784 19.4323 120.784 19.0312C120.784 18.6302 120.72 18.2565 120.593 17.9102C120.465 17.5638 120.269 17.2839 120.003 17.0703C119.737 16.8568 119.399 16.75 118.987 16.75C118.576 16.75 118.237 16.8568 117.972 17.0703C117.706 17.2839 117.509 17.5638 117.382 17.9102C117.254 18.2565 117.19 18.6302 117.19 19.0312C117.19 19.4323 117.254 19.8047 117.382 20.1484C117.509 20.4922 117.706 20.7695 117.972 20.9805C118.237 21.1914 118.576 21.2969 118.987 21.2969ZM124.035 14V22H123.113V14H124.035ZM127.989 22.125C127.489 22.125 127.048 21.9987 126.665 21.7461C126.282 21.4909 125.983 21.1315 125.767 20.668C125.55 20.2018 125.442 19.651 125.442 19.0156C125.442 18.3854 125.55 17.8385 125.767 17.375C125.983 16.9115 126.284 16.5534 126.669 16.3008C127.054 16.0482 127.5 15.9219 128.005 15.9219C128.396 15.9219 128.704 15.987 128.931 16.1172C129.16 16.2448 129.334 16.3906 129.454 16.5547C129.576 16.7161 129.672 16.849 129.739 16.9531H129.817V14H130.739V22H129.849V21.0781H129.739C129.672 21.1875 129.575 21.3255 129.45 21.4922C129.325 21.6562 129.147 21.8034 128.915 21.9336C128.683 22.0612 128.375 22.125 127.989 22.125ZM128.114 21.2969C128.484 21.2969 128.797 21.2005 129.052 21.0078C129.307 20.8125 129.501 20.543 129.634 20.1992C129.767 19.8529 129.833 19.4531 129.833 19C129.833 18.5521 129.768 18.1602 129.638 17.8242C129.507 17.4857 129.315 17.2227 129.06 17.0352C128.804 16.8451 128.489 16.75 128.114 16.75C127.724 16.75 127.398 16.8503 127.138 17.0508C126.88 17.2487 126.686 17.5182 126.556 17.8594C126.428 18.1979 126.364 18.5781 126.364 19C126.364 19.4271 126.429 19.8151 126.56 20.1641C126.692 20.5104 126.888 20.7865 127.146 20.9922C127.406 21.1953 127.729 21.2969 128.114 21.2969ZM135.071 22.125C134.493 22.125 133.994 21.9974 133.575 21.7422C133.159 21.4844 132.837 21.125 132.61 20.6641C132.386 20.2005 132.274 19.6615 132.274 19.0469C132.274 18.4323 132.386 17.8906 132.61 17.4219C132.837 16.9505 133.152 16.5833 133.556 16.3203C133.962 16.0547 134.436 15.9219 134.978 15.9219C135.29 15.9219 135.599 15.974 135.903 16.0781C136.208 16.1823 136.485 16.3516 136.735 16.5859C136.985 16.8177 137.185 17.125 137.333 17.5078C137.481 17.8906 137.556 18.362 137.556 18.9219V19.3125H132.931V18.5156H136.618C136.618 18.1771 136.55 17.875 136.415 17.6094C136.282 17.3437 136.092 17.1341 135.845 16.9805C135.6 16.8268 135.311 16.75 134.978 16.75C134.61 16.75 134.293 16.8411 134.024 17.0234C133.759 17.2031 133.554 17.4375 133.411 17.7266C133.268 18.0156 133.196 18.3255 133.196 18.6562V19.1875C133.196 19.6406 133.274 20.0247 133.431 20.3398C133.59 20.6523 133.81 20.8906 134.091 21.0547C134.372 21.2161 134.699 21.2969 135.071 21.2969C135.313 21.2969 135.532 21.263 135.728 21.1953C135.925 21.125 136.096 21.0208 136.239 20.8828C136.382 20.7422 136.493 20.5677 136.571 20.3594L137.462 20.6094C137.368 20.9115 137.211 21.1771 136.989 21.4062C136.768 21.6328 136.494 21.8099 136.169 21.9375C135.843 22.0625 135.478 22.125 135.071 22.125ZM138.958 22V16H139.849V16.9062H139.911C140.021 16.6094 140.218 16.3685 140.505 16.1836C140.791 15.9987 141.114 15.9062 141.474 15.9062C141.541 15.9062 141.626 15.9076 141.728 15.9102C141.829 15.9128 141.906 15.9167 141.958 15.9219V16.8594C141.927 16.8516 141.855 16.8398 141.743 16.8242C141.634 16.806 141.518 16.7969 141.396 16.7969C141.104 16.7969 140.843 16.8581 140.614 16.9805C140.388 17.1003 140.208 17.2669 140.075 17.4805C139.945 17.6914 139.88 17.9323 139.88 18.2031V22H138.958Z" fill="black"/>
</svg>
