<svg width="99" height="99" viewBox="0 0 99 99" fill="none" xmlns="http://www.w3.org/2000/svg">
<g clip-path="url(#clip0_350_287)">
<rect x="0.5" y="0.5" width="98" height="98" fill="#D9D9D9" stroke="#A7A7A7"/>
<line x1="-0.353553" y1="99.6464" x2="99.6465" y2="-0.353562" stroke="#D1D1D1"/>
<line x1="99.6464" y1="99.3536" x2="-0.353565" y2="-0.646458" stroke="#D1D1D1"/>
<rect x="0.5" y="0.5" width="98" height="98" stroke="#A7A7A7"/>
<path d="M25.5716 38.03V45H24.6616V38.03H25.5716ZM33.7125 39.42C34.1392 39.42 34.5192 39.51 34.8525 39.69C35.1859 39.8633 35.4492 40.1267 35.6425 40.48C35.8359 40.8333 35.9325 41.2633 35.9325 41.77V45H35.0325V41.9C35.0325 41.3533 34.8959 40.9367 34.6225 40.65C34.3559 40.3567 33.9925 40.21 33.5325 40.21C33.0592 40.21 32.6825 40.3633 32.4025 40.67C32.1225 40.97 31.9825 41.4067 31.9825 41.98V45H31.0825V41.9C31.0825 41.3533 30.9459 40.9367 30.6725 40.65C30.4059 40.3567 30.0425 40.21 29.5825 40.21C29.1092 40.21 28.7325 40.3633 28.4525 40.67C28.1725 40.97 28.0325 41.4067 28.0325 41.98V45H27.1225V39.52H28.0325V40.31C28.2125 40.0233 28.4525 39.8033 28.7525 39.65C29.0592 39.4967 29.3959 39.42 29.7625 39.42C30.2225 39.42 30.6292 39.5233 30.9825 39.73C31.3359 39.9367 31.5992 40.24 31.7725 40.64C31.9259 40.2533 32.1792 39.9533 32.5325 39.74C32.8859 39.5267 33.2792 39.42 33.7125 39.42ZM37.0853 42.24C37.0853 41.68 37.1986 41.19 37.4253 40.77C37.6519 40.3433 37.9619 40.0133 38.3553 39.78C38.7553 39.5467 39.1986 39.43 39.6853 39.43C40.1653 39.43 40.5819 39.5333 40.9353 39.74C41.2886 39.9467 41.5519 40.2067 41.7253 40.52V39.52H42.6453V45H41.7253V43.98C41.5453 44.3 41.2753 44.5667 40.9153 44.78C40.5619 44.9867 40.1486 45.09 39.6753 45.09C39.1886 45.09 38.7486 44.97 38.3553 44.73C37.9619 44.49 37.6519 44.1533 37.4253 43.72C37.1986 43.2867 37.0853 42.7933 37.0853 42.24ZM41.7253 42.25C41.7253 41.8367 41.6419 41.4767 41.4753 41.17C41.3086 40.8633 41.0819 40.63 40.7953 40.47C40.5153 40.3033 40.2053 40.22 39.8653 40.22C39.5253 40.22 39.2153 40.3 38.9353 40.46C38.6553 40.62 38.4319 40.8533 38.2653 41.16C38.0986 41.4667 38.0153 41.8267 38.0153 42.24C38.0153 42.66 38.0986 43.0267 38.2653 43.34C38.4319 43.6467 38.6553 43.8833 38.9353 44.05C39.2153 44.21 39.5253 44.29 39.8653 44.29C40.2053 44.29 40.5153 44.21 40.7953 44.05C41.0819 43.8833 41.3086 43.6467 41.4753 43.34C41.6419 43.0267 41.7253 42.6633 41.7253 42.25ZM46.4431 39.43C46.9164 39.43 47.3298 39.5333 47.6831 39.74C48.0431 39.9467 48.3098 40.2067 48.4831 40.52V39.52H49.4031V45.12C49.4031 45.62 49.2964 46.0633 49.0831 46.45C48.8698 46.8433 48.5631 47.15 48.1631 47.37C47.7698 47.59 47.3098 47.7 46.7831 47.7C46.0631 47.7 45.4631 47.53 44.9831 47.19C44.5031 46.85 44.2198 46.3867 44.1331 45.8H45.0331C45.1331 46.1333 45.3398 46.4 45.6531 46.6C45.9664 46.8067 46.3431 46.91 46.7831 46.91C47.2831 46.91 47.6898 46.7533 48.0031 46.44C48.3231 46.1267 48.4831 45.6867 48.4831 45.12V43.97C48.3031 44.29 48.0364 44.5567 47.6831 44.77C47.3298 44.9833 46.9164 45.09 46.4431 45.09C45.9564 45.09 45.5131 44.97 45.1131 44.73C44.7198 44.49 44.4098 44.1533 44.1831 43.72C43.9564 43.2867 43.8431 42.7933 43.8431 42.24C43.8431 41.68 43.9564 41.19 44.1831 40.77C44.4098 40.3433 44.7198 40.0133 45.1131 39.78C45.5131 39.5467 45.9564 39.43 46.4431 39.43ZM48.4831 42.25C48.4831 41.8367 48.3998 41.4767 48.2331 41.17C48.0664 40.8633 47.8398 40.63 47.5531 40.47C47.2731 40.3033 46.9631 40.22 46.6231 40.22C46.2831 40.22 45.9731 40.3 45.6931 40.46C45.4131 40.62 45.1898 40.8533 45.0231 41.16C44.8564 41.4667 44.7731 41.8267 44.7731 42.24C44.7731 42.66 44.8564 43.0267 45.0231 43.34C45.1898 43.6467 45.4131 43.8833 45.6931 44.05C45.9731 44.21 46.2831 44.29 46.6231 44.29C46.9631 44.29 47.2731 44.21 47.5531 44.05C47.8398 43.8833 48.0664 43.6467 48.2331 43.34C48.3998 43.0267 48.4831 42.6633 48.4831 42.25ZM55.9409 42.05C55.9409 42.2233 55.9309 42.4067 55.9109 42.6H51.5309C51.5642 43.14 51.7476 43.5633 52.0809 43.87C52.4209 44.17 52.8309 44.32 53.3109 44.32C53.7042 44.32 54.0309 44.23 54.2909 44.05C54.5576 43.8633 54.7442 43.6167 54.8509 43.31H55.8309C55.6842 43.8367 55.3909 44.2667 54.9509 44.6C54.5109 44.9267 53.9642 45.09 53.3109 45.09C52.7909 45.09 52.3242 44.9733 51.9109 44.74C51.5042 44.5067 51.1842 44.1767 50.9509 43.75C50.7176 43.3167 50.6009 42.8167 50.6009 42.25C50.6009 41.6833 50.7142 41.1867 50.9409 40.76C51.1676 40.3333 51.4842 40.0067 51.8909 39.78C52.3042 39.5467 52.7776 39.43 53.3109 39.43C53.8309 39.43 54.2909 39.5433 54.6909 39.77C55.0909 39.9967 55.3976 40.31 55.6109 40.71C55.8309 41.1033 55.9409 41.55 55.9409 42.05ZM55.0009 41.86C55.0009 41.5133 54.9242 41.2167 54.7709 40.97C54.6176 40.7167 54.4076 40.5267 54.1409 40.4C53.8809 40.2667 53.5909 40.2 53.2709 40.2C52.8109 40.2 52.4176 40.3467 52.0909 40.64C51.7709 40.9333 51.5876 41.34 51.5409 41.86H55.0009ZM65.2881 45H64.3781L60.7181 39.45V45H59.8081V38.02H60.7181L64.3781 43.56V38.02H65.2881V45ZM69.2293 45.09C68.716 45.09 68.2493 44.9733 67.8293 44.74C67.416 44.5067 67.0893 44.1767 66.8493 43.75C66.616 43.3167 66.4993 42.8167 66.4993 42.25C66.4993 41.69 66.6193 41.1967 66.8593 40.77C67.106 40.3367 67.4393 40.0067 67.8593 39.78C68.2793 39.5467 68.7493 39.43 69.2693 39.43C69.7893 39.43 70.2593 39.5467 70.6793 39.78C71.0993 40.0067 71.4293 40.3333 71.6693 40.76C71.916 41.1867 72.0393 41.6833 72.0393 42.25C72.0393 42.8167 71.9127 43.3167 71.6593 43.75C71.4127 44.1767 71.076 44.5067 70.6493 44.74C70.2227 44.9733 69.7493 45.09 69.2293 45.09ZM69.2293 44.29C69.556 44.29 69.8627 44.2133 70.1493 44.06C70.436 43.9067 70.666 43.6767 70.8393 43.37C71.0193 43.0633 71.1093 42.69 71.1093 42.25C71.1093 41.81 71.0227 41.4367 70.8493 41.13C70.676 40.8233 70.4493 40.5967 70.1693 40.45C69.8893 40.2967 69.586 40.22 69.2593 40.22C68.926 40.22 68.6193 40.2967 68.3393 40.45C68.066 40.5967 67.846 40.8233 67.6793 41.13C67.5127 41.4367 67.4293 41.81 67.4293 42.25C67.4293 42.6967 67.5093 43.0733 67.6693 43.38C67.836 43.6867 68.056 43.9167 68.3293 44.07C68.6027 44.2167 68.9027 44.29 69.2293 44.29ZM74.3458 40.27V43.5C74.3458 43.7667 74.4025 43.9567 74.5158 44.07C74.6292 44.1767 74.8258 44.23 75.1058 44.23H75.7758V45H74.9558C74.4492 45 74.0692 44.8833 73.8158 44.65C73.5625 44.4167 73.4358 44.0333 73.4358 43.5V40.27H72.7258V39.52H73.4358V38.14H74.3458V39.52H75.7758V40.27H74.3458ZM31.7894 58.45H28.7494L28.1894 60H27.2294L29.7494 53.07H30.7994L33.3094 60H32.3494L31.7894 58.45ZM31.5294 57.71L30.2694 54.19L29.0094 57.71H31.5294ZM36.4477 59.16L38.1477 54.52H39.1177L36.9677 60H35.9077L33.7577 54.52H34.7377L36.4477 59.16ZM39.6732 57.24C39.6732 56.68 39.7865 56.19 40.0132 55.77C40.2398 55.3433 40.5498 55.0133 40.9432 54.78C41.3432 54.5467 41.7865 54.43 42.2732 54.43C42.7532 54.43 43.1698 54.5333 43.5232 54.74C43.8765 54.9467 44.1398 55.2067 44.3132 55.52V54.52H45.2332V60H44.3132V58.98C44.1332 59.3 43.8632 59.5667 43.5032 59.78C43.1498 59.9867 42.7365 60.09 42.2632 60.09C41.7765 60.09 41.3365 59.97 40.9432 59.73C40.5498 59.49 40.2398 59.1533 40.0132 58.72C39.7865 58.2867 39.6732 57.7933 39.6732 57.24ZM44.3132 57.25C44.3132 56.8367 44.2298 56.4767 44.0632 56.17C43.8965 55.8633 43.6698 55.63 43.3832 55.47C43.1032 55.3033 42.7932 55.22 42.4532 55.22C42.1132 55.22 41.8032 55.3 41.5232 55.46C41.2432 55.62 41.0198 55.8533 40.8532 56.16C40.6865 56.4667 40.6032 56.8267 40.6032 57.24C40.6032 57.66 40.6865 58.0267 40.8532 58.34C41.0198 58.6467 41.2432 58.8833 41.5232 59.05C41.8032 59.21 42.1132 59.29 42.4532 59.29C42.7932 59.29 43.1032 59.21 43.3832 59.05C43.6698 58.8833 43.8965 58.6467 44.0632 58.34C44.2298 58.0267 44.3132 57.6633 44.3132 57.25ZM47.241 53.63C47.0676 53.63 46.921 53.57 46.801 53.45C46.681 53.33 46.621 53.1833 46.621 53.01C46.621 52.8367 46.681 52.69 46.801 52.57C46.921 52.45 47.0676 52.39 47.241 52.39C47.4076 52.39 47.5476 52.45 47.661 52.57C47.781 52.69 47.841 52.8367 47.841 53.01C47.841 53.1833 47.781 53.33 47.661 53.45C47.5476 53.57 47.4076 53.63 47.241 53.63ZM47.681 54.52V60H46.771V54.52H47.681ZM50.1419 52.6V60H49.2319V52.6H50.1419ZM51.3529 57.24C51.3529 56.68 51.4662 56.19 51.6929 55.77C51.9195 55.3433 52.2295 55.0133 52.6229 54.78C53.0229 54.5467 53.4662 54.43 53.9529 54.43C54.4329 54.43 54.8495 54.5333 55.2029 54.74C55.5562 54.9467 55.8195 55.2067 55.9929 55.52V54.52H56.9129V60H55.9929V58.98C55.8129 59.3 55.5429 59.5667 55.1829 59.78C54.8295 59.9867 54.4162 60.09 53.9429 60.09C53.4562 60.09 53.0162 59.97 52.6229 59.73C52.2295 59.49 51.9195 59.1533 51.6929 58.72C51.4662 58.2867 51.3529 57.7933 51.3529 57.24ZM55.9929 57.25C55.9929 56.8367 55.9095 56.4767 55.7429 56.17C55.5762 55.8633 55.3495 55.63 55.0629 55.47C54.7829 55.3033 54.4729 55.22 54.1329 55.22C53.7929 55.22 53.4829 55.3 53.2029 55.46C52.9229 55.62 52.6995 55.8533 52.5329 56.16C52.3662 56.4667 52.2829 56.8267 52.2829 57.24C52.2829 57.66 52.3662 58.0267 52.5329 58.34C52.6995 58.6467 52.9229 58.8833 53.2029 59.05C53.4829 59.21 53.7929 59.29 54.1329 59.29C54.4729 59.29 54.7829 59.21 55.0629 59.05C55.3495 58.8833 55.5762 58.6467 55.7429 58.34C55.9095 58.0267 55.9929 57.6633 55.9929 57.25ZM59.3607 55.54C59.5473 55.2133 59.8207 54.9467 60.1807 54.74C60.5407 54.5333 60.9507 54.43 61.4107 54.43C61.904 54.43 62.3473 54.5467 62.7407 54.78C63.134 55.0133 63.444 55.3433 63.6707 55.77C63.8973 56.19 64.0107 56.68 64.0107 57.24C64.0107 57.7933 63.8973 58.2867 63.6707 58.72C63.444 59.1533 63.1307 59.49 62.7307 59.73C62.3373 59.97 61.8973 60.09 61.4107 60.09C60.9373 60.09 60.5207 59.9867 60.1607 59.78C59.8073 59.5733 59.5407 59.31 59.3607 58.99V60H58.4507V52.6H59.3607V55.54ZM63.0807 57.24C63.0807 56.8267 62.9973 56.4667 62.8307 56.16C62.664 55.8533 62.4373 55.62 62.1507 55.46C61.8707 55.3 61.5607 55.22 61.2207 55.22C60.8873 55.22 60.5773 55.3033 60.2907 55.47C60.0107 55.63 59.784 55.8667 59.6107 56.18C59.444 56.4867 59.3607 56.8433 59.3607 57.25C59.3607 57.6633 59.444 58.0267 59.6107 58.34C59.784 58.6467 60.0107 58.8833 60.2907 59.05C60.5773 59.21 60.8873 59.29 61.2207 59.29C61.5607 59.29 61.8707 59.21 62.1507 59.05C62.4373 58.8833 62.664 58.6467 62.8307 58.34C62.9973 58.0267 63.0807 57.66 63.0807 57.24ZM66.1185 52.6V60H65.2085V52.6H66.1185ZM72.6694 57.05C72.6694 57.2233 72.6594 57.4067 72.6394 57.6H68.2594C68.2927 58.14 68.4761 58.5633 68.8094 58.87C69.1494 59.17 69.5594 59.32 70.0394 59.32C70.4327 59.32 70.7594 59.23 71.0194 59.05C71.2861 58.8633 71.4727 58.6167 71.5794 58.31H72.5594C72.4127 58.8367 72.1194 59.2667 71.6794 59.6C71.2394 59.9267 70.6927 60.09 70.0394 60.09C69.5194 60.09 69.0527 59.9733 68.6394 59.74C68.2327 59.5067 67.9127 59.1767 67.6794 58.75C67.4461 58.3167 67.3294 57.8167 67.3294 57.25C67.3294 56.6833 67.4427 56.1867 67.6694 55.76C67.8961 55.3333 68.2127 55.0067 68.6194 54.78C69.0327 54.5467 69.5061 54.43 70.0394 54.43C70.5594 54.43 71.0194 54.5433 71.4194 54.77C71.8194 54.9967 72.1261 55.31 72.3394 55.71C72.5594 56.1033 72.6694 56.55 72.6694 57.05ZM71.7294 56.86C71.7294 56.5133 71.6527 56.2167 71.4994 55.97C71.3461 55.7167 71.1361 55.5267 70.8694 55.4C70.6094 55.2667 70.3194 55.2 69.9994 55.2C69.5394 55.2 69.1461 55.3467 68.8194 55.64C68.4994 55.9333 68.3161 56.34 68.2694 56.86H71.7294Z" fill="#B1B1B1"/>
</g>
<defs>
<clipPath id="clip0_350_287">
<rect width="99" height="99" fill="white"/>
</clipPath>
</defs>
</svg>
