<svg width="99" height="99" viewBox="0 0 99 99" fill="none" xmlns="http://www.w3.org/2000/svg">
<g clip-path="url(#clip0_350_287)">
<rect x="0.5" y="0.5" width="98" height="98" fill="#D9D9D9" stroke="#A7A7A7"/>
<line x1="-0.353553" y1="99.6464" x2="99.6465" y2="-0.353562" stroke="#D1D1D1"/>
<line x1="99.6464" y1="99.3536" x2="-0.353565" y2="-0.646458" stroke="#D1D1D1"/>
<rect x="0.5" y="0.5" width="98" height="98" stroke="#A7A7A7"/>
<path d="M57.321 89.03L55.301 96H54.281L52.661 90.39L50.981 96L49.971 96.01L48.021 89.03H48.991L50.511 94.94L52.191 89.03H53.211L54.811 94.92L56.341 89.03H57.321ZM60.7069 96.09C60.1935 96.09 59.7269 95.9733 59.3069 95.74C58.8935 95.5067 58.5669 95.1767 58.3269 94.75C58.0935 94.3167 57.9769 93.8167 57.9769 93.25C57.9769 92.69 58.0969 92.1967 58.3369 91.77C58.5835 91.3367 58.9169 91.0067 59.3369 90.78C59.7569 90.5467 60.2269 90.43 60.7469 90.43C61.2669 90.43 61.7369 90.5467 62.1569 90.78C62.5769 91.0067 62.9069 91.3333 63.1469 91.76C63.3935 92.1867 63.5169 92.6833 63.5169 93.25C63.5169 93.8167 63.3902 94.3167 63.1369 94.75C62.8902 95.1767 62.5535 95.5067 62.1269 95.74C61.7002 95.9733 61.2269 96.09 60.7069 96.09ZM60.7069 95.29C61.0335 95.29 61.3402 95.2133 61.6269 95.06C61.9135 94.9067 62.1435 94.6767 62.3169 94.37C62.4969 94.0633 62.5869 93.69 62.5869 93.25C62.5869 92.81 62.5002 92.4367 62.3269 92.13C62.1535 91.8233 61.9269 91.5967 61.6469 91.45C61.3669 91.2967 61.0635 91.22 60.7369 91.22C60.4035 91.22 60.0969 91.2967 59.8169 91.45C59.5435 91.5967 59.3235 91.8233 59.1569 92.13C58.9902 92.4367 58.9069 92.81 58.9069 93.25C58.9069 93.6967 58.9869 94.0733 59.1469 94.38C59.3135 94.6867 59.5335 94.9167 59.8069 95.07C60.0802 95.2167 60.3802 95.29 60.7069 95.29ZM67.1034 96.09C66.59 96.09 66.1234 95.9733 65.7034 95.74C65.29 95.5067 64.9634 95.1767 64.7234 94.75C64.49 94.3167 64.3734 93.8167 64.3734 93.25C64.3734 92.69 64.4934 92.1967 64.7334 91.77C64.98 91.3367 65.3134 91.0067 65.7334 90.78C66.1534 90.5467 66.6234 90.43 67.1434 90.43C67.6634 90.43 68.1334 90.5467 68.5534 90.78C68.9734 91.0067 69.3034 91.3333 69.5434 91.76C69.79 92.1867 69.9134 92.6833 69.9134 93.25C69.9134 93.8167 69.7867 94.3167 69.5334 94.75C69.2867 95.1767 68.95 95.5067 68.5234 95.74C68.0967 95.9733 67.6234 96.09 67.1034 96.09ZM67.1034 95.29C67.43 95.29 67.7367 95.2133 68.0234 95.06C68.31 94.9067 68.54 94.6767 68.7134 94.37C68.8934 94.0633 68.9834 93.69 68.9834 93.25C68.9834 92.81 68.8967 92.4367 68.7234 92.13C68.55 91.8233 68.3234 91.5967 68.0434 91.45C67.7634 91.2967 67.46 91.22 67.1334 91.22C66.8 91.22 66.4934 91.2967 66.2134 91.45C65.94 91.5967 65.72 91.8233 65.5534 92.13C65.3867 92.4367 65.3034 92.81 65.3034 93.25C65.3034 93.6967 65.3834 94.0733 65.5434 94.38C65.71 94.6867 65.93 94.9167 66.2034 95.07C66.4767 95.2167 66.7767 95.29 67.1034 95.29ZM70.7698 93.24C70.7698 92.68 70.8832 92.19 71.1098 91.77C71.3365 91.3433 71.6465 91.0133 72.0398 90.78C72.4398 90.5467 72.8865 90.43 73.3798 90.43C73.8065 90.43 74.2032 90.53 74.5698 90.73C74.9365 90.9233 75.2165 91.18 75.4098 91.5V88.6H76.3298V96H75.4098V94.97C75.2298 95.2967 74.9632 95.5667 74.6098 95.78C74.2565 95.9867 73.8432 96.09 73.3698 96.09C72.8832 96.09 72.4398 95.97 72.0398 95.73C71.6465 95.49 71.3365 95.1533 71.1098 94.72C70.8832 94.2867 70.7698 93.7933 70.7698 93.24ZM75.4098 93.25C75.4098 92.8367 75.3265 92.4767 75.1598 92.17C74.9932 91.8633 74.7665 91.63 74.4798 91.47C74.1998 91.3033 73.8898 91.22 73.5498 91.22C73.2098 91.22 72.8998 91.3 72.6198 91.46C72.3398 91.62 72.1165 91.8533 71.9498 92.16C71.7832 92.4667 71.6998 92.8267 71.6998 93.24C71.6998 93.66 71.7832 94.0267 71.9498 94.34C72.1165 94.6467 72.3398 94.8833 72.6198 95.05C72.8998 95.21 73.2098 95.29 73.5498 95.29C73.8898 95.29 74.1998 95.21 74.4798 95.05C74.7665 94.8833 74.9932 94.6467 75.1598 94.34C75.3265 94.0267 75.4098 93.6633 75.4098 93.25ZM78.7777 88.6V96H77.8677V88.6H78.7777ZM85.3286 93.05C85.3286 93.2233 85.3186 93.4067 85.2986 93.6H80.9186C80.9519 94.14 81.1353 94.5633 81.4686 94.87C81.8086 95.17 82.2186 95.32 82.6986 95.32C83.0919 95.32 83.4186 95.23 83.6786 95.05C83.9453 94.8633 84.1319 94.6167 84.2386 94.31H85.2186C85.0719 94.8367 84.7786 95.2667 84.3386 95.6C83.8986 95.9267 83.3519 96.09 82.6986 96.09C82.1786 96.09 81.7119 95.9733 81.2986 95.74C80.8919 95.5067 80.5719 95.1767 80.3386 94.75C80.1053 94.3167 79.9886 93.8167 79.9886 93.25C79.9886 92.6833 80.1019 92.1867 80.3286 91.76C80.5553 91.3333 80.8719 91.0067 81.2786 90.78C81.6919 90.5467 82.1653 90.43 82.6986 90.43C83.2186 90.43 83.6786 90.5433 84.0786 90.77C84.4786 90.9967 84.7853 91.31 84.9986 91.71C85.2186 92.1033 85.3286 92.55 85.3286 93.05ZM84.3886 92.86C84.3886 92.5133 84.3119 92.2167 84.1586 91.97C84.0053 91.7167 83.7953 91.5267 83.5286 91.4C83.2686 91.2667 82.9786 91.2 82.6586 91.2C82.1986 91.2 81.8053 91.3467 81.4786 91.64C81.1586 91.9333 80.9753 92.34 80.9286 92.86H84.3886ZM88.4698 96.09C88.0498 96.09 87.6731 96.02 87.3398 95.88C87.0064 95.7333 86.7431 95.5333 86.5498 95.28C86.3564 95.02 86.2498 94.7233 86.2298 94.39H87.1698C87.1964 94.6633 87.3231 94.8867 87.5498 95.06C87.7831 95.2333 88.0864 95.32 88.4598 95.32C88.8064 95.32 89.0798 95.2433 89.2798 95.09C89.4798 94.9367 89.5798 94.7433 89.5798 94.51C89.5798 94.27 89.4731 94.0933 89.2598 93.98C89.0464 93.86 88.7164 93.7433 88.2698 93.63C87.8631 93.5233 87.5298 93.4167 87.2698 93.31C87.0164 93.1967 86.7964 93.0333 86.6098 92.82C86.4298 92.6 86.3398 92.3133 86.3398 91.96C86.3398 91.68 86.4231 91.4233 86.5898 91.19C86.7564 90.9567 86.9931 90.7733 87.2998 90.64C87.6064 90.5 87.9564 90.43 88.3498 90.43C88.9564 90.43 89.4464 90.5833 89.8198 90.89C90.1931 91.1967 90.3931 91.6167 90.4198 92.15H89.5098C89.4898 91.8633 89.3731 91.6333 89.1598 91.46C88.9531 91.2867 88.6731 91.2 88.3198 91.2C87.9931 91.2 87.7331 91.27 87.5398 91.41C87.3464 91.55 87.2498 91.7333 87.2498 91.96C87.2498 92.14 87.3064 92.29 87.4198 92.41C87.5398 92.5233 87.6864 92.6167 87.8598 92.69C88.0398 92.7567 88.2864 92.8333 88.5998 92.92C88.9931 93.0267 89.3131 93.1333 89.5598 93.24C89.8064 93.34 90.0164 93.4933 90.1898 93.7C90.3698 93.9067 90.4631 94.1767 90.4698 94.51C90.4698 94.81 90.3864 95.08 90.2198 95.32C90.0531 95.56 89.8164 95.75 89.5098 95.89C89.2098 96.0233 88.8631 96.09 88.4698 96.09ZM93.6944 96.09C93.2744 96.09 92.8977 96.02 92.5644 95.88C92.231 95.7333 91.9677 95.5333 91.7744 95.28C91.581 95.02 91.4744 94.7233 91.4544 94.39H92.3944C92.421 94.6633 92.5477 94.8867 92.7744 95.06C93.0077 95.2333 93.311 95.32 93.6844 95.32C94.031 95.32 94.3044 95.2433 94.5044 95.09C94.7044 94.9367 94.8044 94.7433 94.8044 94.51C94.8044 94.27 94.6977 94.0933 94.4844 93.98C94.271 93.86 93.941 93.7433 93.4944 93.63C93.0877 93.5233 92.7544 93.4167 92.4944 93.31C92.241 93.1967 92.021 93.0333 91.8344 92.82C91.6544 92.6 91.5644 92.3133 91.5644 91.96C91.5644 91.68 91.6477 91.4233 91.8144 91.19C91.981 90.9567 92.2177 90.7733 92.5244 90.64C92.831 90.5 93.181 90.43 93.5744 90.43C94.181 90.43 94.671 90.5833 95.0444 90.89C95.4177 91.1967 95.6177 91.6167 95.6444 92.15H94.7344C94.7144 91.8633 94.5977 91.6333 94.3844 91.46C94.1777 91.2867 93.8977 91.2 93.5444 91.2C93.2177 91.2 92.9577 91.27 92.7644 91.41C92.571 91.55 92.4744 91.7333 92.4744 91.96C92.4744 92.14 92.531 92.29 92.6444 92.41C92.7644 92.5233 92.911 92.6167 93.0844 92.69C93.2644 92.7567 93.511 92.8333 93.8244 92.92C94.2177 93.0267 94.5377 93.1333 94.7844 93.24C95.031 93.34 95.241 93.4933 95.4144 93.7C95.5944 93.9067 95.6877 94.1767 95.6944 94.51C95.6944 94.81 95.611 95.08 95.4444 95.32C95.2777 95.56 95.041 95.75 94.7344 95.89C94.4344 96.0233 94.0877 96.09 93.6944 96.09Z" fill="#B1B1B1"/>
</g>
<defs>
<clipPath id="clip0_350_287">
<rect width="99" height="99" fill="white"/>
</clipPath>
</defs>
</svg>
